<svg width="30" height="25" viewBox="0 0 30 25" fill="none" xmlns="http://www.w3.org/2000/svg">
<path d="M20.955 24.0544C15.9581 24.0544 11.9062 20.6794 11.9062 16.5207C11.9062 12.3582 15.9544 8.98315 20.9513 8.98315C25.9481 8.98315 30 12.3582 30 16.5207C30 18.7894 28.7812 20.835 26.8763 22.2132C26.7703 22.2884 26.6912 22.3957 26.6507 22.5192C26.6102 22.6427 26.6104 22.776 26.6513 22.8994L27.06 24.4182C27.0853 24.4893 27.1035 24.5628 27.1144 24.6375C27.1125 24.7175 27.0799 24.7936 27.0233 24.8502C26.9667 24.9068 26.8906 24.9394 26.8106 24.9413C26.749 24.9389 26.6893 24.9194 26.6381 24.885L24.6562 23.7413C24.5111 23.654 24.3456 23.6062 24.1763 23.6025C24.0861 23.603 23.9964 23.6163 23.91 23.6419C22.9493 23.9177 21.9545 24.0565 20.955 24.0544ZM16.995 14.8913C17.1091 15.0664 17.2665 15.2091 17.4519 15.3055C17.6374 15.4019 17.8446 15.4487 18.0534 15.4415C18.2623 15.4343 18.4658 15.3732 18.6441 15.2642C18.8224 15.1552 18.9696 15.002 19.0713 14.8194C19.173 14.6368 19.2258 14.431 19.2246 14.2221C19.2233 14.0131 19.1682 13.8079 19.0644 13.6265C18.9605 13.4451 18.8116 13.2936 18.6321 13.1867C18.4525 13.0798 18.2483 13.0211 18.0394 13.0163C17.8801 13.016 17.7223 13.0473 17.5751 13.1082C17.4279 13.1691 17.2942 13.2584 17.1817 13.3712C17.0691 13.4839 16.98 13.6177 16.9193 13.765C16.8586 13.9123 16.8276 14.0701 16.8281 14.2294C16.8162 14.462 16.8751 14.6928 16.9969 14.8913H16.995ZM23.055 14.8932C23.1697 15.0682 23.3278 15.2106 23.5138 15.3063C23.6999 15.4021 23.9076 15.448 24.1167 15.4396C24.3259 15.4312 24.5292 15.3688 24.707 15.2584C24.8848 15.1481 25.031 14.9935 25.1313 14.8098C25.2316 14.6261 25.2825 14.4196 25.2793 14.2104C25.276 14.0011 25.2185 13.7963 25.1125 13.6158C25.0065 13.4354 24.8556 13.2855 24.6744 13.1807C24.4932 13.076 24.288 13.02 24.0788 13.0182C23.7587 13.0187 23.4518 13.146 23.2255 13.3724C22.9991 13.5987 22.8717 13.9056 22.8713 14.2257C22.8641 14.4616 22.9281 14.6941 23.055 14.8932Z" fill="#333333"/>
<path d="M0 9.79875C0 12.5269 1.46437 14.9831 3.75187 16.6538C3.87954 16.7435 3.97468 16.8723 4.02302 17.0207C4.07135 17.1691 4.0703 17.3291 4.02 17.4769L3.71813 18.6019L3.53063 19.3013C3.49807 19.3854 3.47786 19.4738 3.47062 19.5638C3.47038 19.6113 3.47957 19.6585 3.49766 19.7025C3.51576 19.7465 3.54241 19.7865 3.57606 19.8202C3.60971 19.8538 3.64971 19.8805 3.69372 19.8986C3.73774 19.9167 3.78491 19.9259 3.8325 19.9256C3.90562 19.9256 3.97687 19.9069 4.04063 19.8713L6.41813 18.4969C6.59292 18.3924 6.79202 18.3355 6.99563 18.3319C7.10437 18.3319 7.21312 18.3488 7.31625 18.3787C8.30851 18.6635 9.33156 18.8271 10.3631 18.8662C10.1415 18.1041 10.0298 17.3143 10.0312 16.5206C10.0312 11.0156 15.2531 7.10812 20.9513 7.10812C21.045 7.10812 21.1388 7.10813 21.2325 7.11188C19.8506 3.42938 15.735 0.75 10.8675 0.75C4.8675 0.75 0 4.8 0 9.79875ZM8.685 6.88312C8.685 7.26603 8.53289 7.63325 8.26214 7.90401C7.99138 8.17477 7.62416 8.32687 7.24125 8.32687C6.85834 8.32687 6.49112 8.17477 6.22036 7.90401C5.94961 7.63325 5.7975 7.26603 5.7975 6.88312C5.7975 6.50022 5.94961 6.133 6.22036 5.86224C6.49112 5.59148 6.85834 5.43937 7.24125 5.43937C7.62416 5.43937 7.99138 5.59148 8.26214 5.86224C8.53289 6.133 8.685 6.50022 8.685 6.88312ZM15.9506 6.88312C15.9506 7.26603 15.7985 7.63325 15.5278 7.90401C15.257 8.17477 14.8898 8.32687 14.5069 8.32687C14.124 8.32687 13.7567 8.17477 13.486 7.90401C13.2152 7.63325 13.0631 7.26603 13.0631 6.88312C13.0631 6.50022 13.2152 6.133 13.486 5.86224C13.7567 5.59148 14.124 5.43937 14.5069 5.43937C14.8898 5.43937 15.257 5.59148 15.5278 5.86224C15.7985 6.133 15.9506 6.50022 15.9506 6.88312Z" fill="#333333"/>
</svg>
