<?xml version="1.0" encoding="utf-8"?><svg viewBox="0 0 30 25" xmlns="http://www.w3.org/2000/svg" xmlns:xlink="http://www.w3.org/1999/xlink"><style>:root>svg{display:none}:root>svg:target{display:block}</style><svg viewBox="0 0 16 14" id="arrow-left" xmlns="http://www.w3.org/2000/svg"><path fill-rule="evenodd" clip-rule="evenodd" d="M15.5 7a.938.938 0 01-.937.937H3.7l4.025 4.024A.94.94 0 016.4 13.29L.774 7.664a.937.937 0 010-1.328L6.399.711A.939.939 0 017.726 2.04L3.701 6.062h10.862A.937.937 0 0115.5 7z"/></svg><svg viewBox="0 0 16 14" id="arrow-right" xmlns="http://www.w3.org/2000/svg"><path fill-rule="evenodd" clip-rule="evenodd" d="M.5 7a.938.938 0 00.937.937H12.3l-4.025 4.024A.94.94 0 009.6 13.29l5.625-5.625a.938.938 0 000-1.328L9.601.711A.939.939 0 008.274 2.04l4.025 4.023H1.437A.938.938 0 00.5 7z"/></svg><svg viewBox="0 0 18 16" id="email" xmlns="http://www.w3.org/2000/svg"><path d="M3 .5a3 3 0 00-3 3v.301l9 4.847 9-4.845V3.5a3 3 0 00-3-3H3zm15 5.005L9.355 10.16a.75.75 0 01-.71 0L0 5.505V12.5a3 3 0 003 3h12a3 3 0 003-3V5.505z"/></svg><svg viewBox="0 0 30 25" id="mails" xmlns="http://www.w3.org/2000/svg"><path d="M20.955 24.054c-4.997 0-9.049-3.375-9.049-7.533 0-4.163 4.048-7.538 9.045-7.538S30 12.358 30 16.521c0 2.268-1.219 4.314-3.124 5.692a.607.607 0 00-.225.686l.409 1.52c.025.07.044.144.054.218a.311.311 0 01-.303.304.332.332 0 01-.173-.056l-1.982-1.144a.972.972 0 00-.48-.139c-.09.001-.18.014-.266.04-.96.276-1.956.415-2.955.412zm-3.96-9.163a1.214 1.214 0 101.044-1.875 1.209 1.209 0 00-1.21 1.213c-.013.233.046.464.168.662h-.002zm6.06.002a1.211 1.211 0 101.024-1.875 1.21 1.21 0 00-1.208 1.208c-.007.236.057.468.184.667z"/><path d="M0 9.799c0 2.728 1.464 5.184 3.752 6.855a.722.722 0 01.268.823l-.302 1.125-.187.7a.935.935 0 00-.06.262.36.36 0 00.361.362.426.426 0 00.209-.055l2.377-1.374c.175-.105.374-.162.578-.165.108 0 .217.017.32.047.993.284 2.016.448 3.047.487a8.348 8.348 0 01-.332-2.345c0-5.505 5.222-9.413 10.92-9.413.094 0 .188 0 .282.004C19.85 3.429 15.735.75 10.867.75 4.867.75 0 4.8 0 9.799zm8.685-2.916a1.444 1.444 0 11-2.888 0 1.444 1.444 0 012.888 0zm7.266 0a1.444 1.444 0 11-2.888 0 1.444 1.444 0 012.888 0z"/></svg><svg viewBox="0 0 14 19" id="map" xmlns="http://www.w3.org/2000/svg"><path d="M7 19a29.779 29.779 0 01-3.5-3.531C1.9 13.558 0 10.712 0 8a7 7 0 0111.952-4.951A6.955 6.955 0 0114 8c0 2.712-1.9 5.558-3.5 7.469A29.78 29.78 0 017 19zM7 5a3 3 0 100 6 3 3 0 000-6z"/></svg><svg viewBox="0 0 20 20" id="phone" xmlns="http://www.w3.org/2000/svg"><path d="M13.248 14.11l1.68-1.68a1.643 1.643 0 011.755-.36l2.047.817a1.635 1.635 0 011.02 1.5v3.75a1.626 1.626 0 01-1.71 1.613C3.693 18.858.798 6.708.25 2.058A1.628 1.628 0 011.878.25H5.5A1.62 1.62 0 017 1.27l.818 2.048a1.62 1.62 0 01-.353 1.755l-1.68 1.68s.968 6.547 7.463 7.357z"/></svg><svg viewBox="0 0 8 8" id="square" xmlns="http://www.w3.org/2000/svg"><path d="M0 0h8v8H0z"/></svg><svg viewBox="0 0 26 22" id="telegram" xmlns="http://www.w3.org/2000/svg"><path d="M23.831.646L1.67 9.193C.156 9.8.165 10.643 1.39 11.02l5.69 1.775 13.165-8.306c.623-.379 1.192-.175.724.24l-10.666 9.626H10.3l.003.001-.393 5.865c.575 0 .829-.264 1.152-.575l2.763-2.687 5.749 4.246c1.06.584 1.821.284 2.085-.981l3.774-17.785C25.82.89 24.843.189 23.83.646z"/></svg><svg viewBox="0 0 30 18" id="vk" xmlns="http://www.w3.org/2000/svg"><path fill-rule="evenodd" clip-rule="evenodd" d="M26.703 12.447s2.426 2.396 3.026 3.504a.19.19 0 01.027.052c.244.41.304.731.184.968-.202.392-.888.588-1.12.605h-4.287c-.299 0-.92-.079-1.676-.6-.577-.404-1.152-1.068-1.708-1.718-.831-.964-1.55-1.801-2.277-1.801a.822.822 0 00-.27.044c-.55.175-1.25.959-1.25 3.048 0 .654-.516 1.027-.877 1.027H14.51c-.669 0-4.152-.235-7.24-3.491C3.486 10.098.087 2.1.054 2.029c-.211-.517.233-.799.713-.799h4.329c.58 0 .77.351.901.666.153.361.72 1.808 1.65 3.432 1.506 2.643 2.432 3.718 3.171 3.718a.79.79 0 00.396-.104c.966-.531.786-3.982.741-4.692 0-.138-.001-1.541-.496-2.219-.354-.486-.957-.675-1.322-.744.098-.141.305-.357.57-.485.662-.33 1.857-.378 3.044-.378h.658c1.287.019 1.62.101 2.088.22.942.224.96.835.878 2.914-.024.594-.05 1.263-.05 2.05 0 .169-.007.356-.007.546-.029 1.067-.066 2.268.687 2.762.097.06.21.093.325.093.261 0 1.043 0 3.162-3.638.93-1.606 1.65-3.5 1.7-3.643.042-.08.168-.303.32-.393a.719.719 0 01.355-.084h5.092c.555 0 .932.084 1.005.294.123.34-.024 1.38-2.349 4.524-.391.524-.735.976-1.036 1.372-2.108 2.766-2.108 2.906.124 5.006z"/></svg><svg viewBox="0 0 30 22" id="youtube" xmlns="http://www.w3.org/2000/svg"><path d="M29.375 4.134a3.483 3.483 0 00-.958-1.588 3.813 3.813 0 00-1.672-.927C24.397 1 14.992 1 14.992 1c-3.92-.045-7.84.152-11.737.587a3.95 3.95 0 00-1.673.95A3.62 3.62 0 00.61 4.132 36.363 36.363 0 000 11c-.015 2.301.189 4.6.61 6.867.171.6.505 1.145.969 1.587a3.87 3.87 0 001.676.928C5.634 21 14.992 21 14.992 21c3.926.045 7.851-.152 11.753-.587a3.814 3.814 0 001.672-.928c.457-.433.787-.982.956-1.587.432-2.264.642-4.565.627-6.87a33.225 33.225 0 00-.625-6.896v.002zM12.002 15.28V6.721l7.825 4.28-7.825 4.279z"/></svg></svg>